# xmcd
#
# Track frame offsets:
#	150
#	10526
#	20978
#	39708
#	53381
#	62456
#	70367
#	83744
#	100407
#	116570
#	125829
#	133253
#	148594
#	162458
#	168806
#	178673
#	188867
#	200320
#	210835
#	229155
#
# Disc length: 3388 seconds
#
# Revision: 1
# Processed by: cddbd v1.5.2PL0 Copyright (c) Steve Scherf et al.
# Submitted via: audiograbber 1.83.01
#
DISCID=170d3a14
DTITLE=CBN - Vo Engel und Maschinegwehr
DYEAR=1900
DGENRE=rap
TTITLE0=Intro
TTITLE1=Lueg etz
TTITLE2=Läck mer am Arsch
TTITLE3=Arrogant
TTITLE4=Tropfä uf dä heiss Stei
TTITLE5=Leader
TTITLE6=Griefed noch Blau feat. Sey
TTITLE7=Herbsttagtraum
TTITLE8=Keis Problem
TTITLE9=SG 2006
TTITLE10=stand grad
TTITLE11=Fokus uf üs feat. Diens
TTITLE12=Topmodels feat. LIV
TTITLE13=Punchline Jolie
TTITLE14=Glashuus
TTITLE15=Langsam kaputt
TTITLE16=Weed. Nutte, Hood
TTITLE17=Veradammt
TTITLE18=Dä Tüfel isch tot
TTITLE19=Outro
EXTD=
EXTT0=
EXTT1=
EXTT2=
EXTT3=
EXTT4=
EXTT5=
EXTT6=
EXTT7=
EXTT8=
EXTT9=
EXTT10=
EXTT11=
EXTT12=
EXTT13=
EXTT14=
EXTT15=
EXTT16=
EXTT17=
EXTT18=
EXTT19=
PLAYORDER=
